HIERARCHY
ROOT Hips
{
    OFFSET 0.000000 0.000000 0.000000
    CHANNELS 6 Xposition Yposition Zposition Zrotation Xrotation Yrotation
    JOINT Spine
    {
        OFFSET -0.000000 7.305680 0.000000
        CHANNELS 3 Zrotation Xrotation Yrotation
        JOINT Spine1
        {
            OFFSET -0.000000 20.356600 0.000000
            CHANNELS 3 Zrotation Xrotation Yrotation
            JOINT Neck
            {
                OFFSET -0.000000 22.138500 0.000000
                CHANNELS 3 Zrotation Xrotation Yrotation
                JOINT Head
                {
                    OFFSET -0.000000 13.809501 1.781870
                    CHANNELS 3 Zrotation Xrotation Yrotation
                    End Site
                    {
                        OFFSET -0.000000 17.818779 0.000000
                    }
                }
            }
            JOINT LeftShoulder
            {
                OFFSET 3.599130 17.990000 0.023591
                CHANNELS 3 Zrotation Xrotation Yrotation
                JOINT LeftArm
                {
                    OFFSET 12.560999 0.000000 0.000000
                    CHANNELS 3 Zrotation Xrotation Yrotation
                    JOINT LeftForeArm
                    {
                        OFFSET 22.903299 0.000000 0.000000
                        CHANNELS 3 Zrotation Xrotation Yrotation
                        JOINT LeftHand
                        {
                            OFFSET 21.865299 0.000000 0.000000
                            CHANNELS 3 Zrotation Xrotation Yrotation
                            JOINT LeftHandThumb1
                            {
                                OFFSET 1.853710 -2.106480 2.949080
                                CHANNELS 3 Zrotation Xrotation Yrotation
                                JOINT LeftHandThumb2
                                {
                                    OFFSET 2.049150 0.000000 1.336400
                                    CHANNELS 3 Zrotation Xrotation Yrotation
                                    JOINT LeftHandThumb3
                                    {
                                        OFFSET 2.672810 0.000000 0.000000
                                        CHANNELS 3 Zrotation Xrotation Yrotation
                                        End Site
                                        {
                                            OFFSET 2.381310 0.000000 0.000000
                                        }
                                    }
                                }
                            }
                            JOINT LeftHandIndex1
                            {
                                OFFSET 7.583340 0.000000 2.949080
                                CHANNELS 3 Zrotation Xrotation Yrotation
                                JOINT LeftHandIndex2
                                {
                                    OFFSET 4.454680 0.000000 0.000000
                                    CHANNELS 3 Zrotation Xrotation Yrotation
                                    JOINT LeftHandIndex3
                                    {
                                        OFFSET 2.227340 0.000000 0.000000
                                        CHANNELS 3 Zrotation Xrotation Yrotation
                                        End Site
                                        {
                                            OFFSET 1.984424 0.000000 0.000000
                                        }
                                    }
                                }
                            }
                            JOINT LeftHandMiddle1
                            {
                                OFFSET 7.583340 0.000000 0.977409
                                CHANNELS 3 Zrotation Xrotation Yrotation
                                JOINT LeftHandMiddle2
                                {
                                    OFFSET 4.900150 0.000000 0.000000
                                    CHANNELS 3 Zrotation Xrotation Yrotation
                                    JOINT LeftHandMiddle3
                                    {
                                        OFFSET 2.672810 0.000000 0.000000
                                        CHANNELS 3 Zrotation Xrotation Yrotation
                                        End Site
                                        {
                                            OFFSET 2.381310 0.000000 0.000000
                                        }
                                    }
                                }
                            }
                            JOINT LeftHandRing1
                            {
                                OFFSET 7.162050 0.000000 -0.977409
                                CHANNELS 3 Zrotation Xrotation Yrotation
                                JOINT LeftHandRing2
                                {
                                    OFFSET 4.454680 0.000000 0.000000
                                    CHANNELS 3 Zrotation Xrotation Yrotation
                                    JOINT LeftHandRing3
                                    {
                                        OFFSET 2.227340 0.000000 0.000000
                                        CHANNELS 3 Zrotation Xrotation Yrotation
                                        End Site
                                        {
                                            OFFSET 1.984424 0.000000 0.000000
                                        }
                                    }
                                }
                            }
                            JOINT LeftHandPinky1
                            {
                                OFFSET 6.740750 0.000000 -2.949080
                                CHANNELS 3 Zrotation Xrotation Yrotation
                                JOINT LeftHandPinky2
                                {
                                    OFFSET 3.563750 0.000000 0.000000
                                    CHANNELS 3 Zrotation Xrotation Yrotation
                                    JOINT LeftHandPinky3
                                    {
                                        OFFSET 1.781870 0.000000 0.000000
                                        CHANNELS 3 Zrotation Xrotation Yrotation
                                        End Site
                                        {
                                            OFFSET 1.587538 0.000000 0.000000
                                        }
                                    }
                                }
                            }
                        }
                    }
                }
            }
            JOINT RightShoulder
            {
                OFFSET -3.506990 17.990000 0.023591
                CHANNELS 3 Zrotation Xrotation Yrotation
                JOINT RightArm
                {
                    OFFSET -12.560999 0.000000 0.000000
                    CHANNELS 3 Zrotation Xrotation Yrotation
                    JOINT RightForeArm
                    {
                        OFFSET -22.903299 0.000000 0.000000
                        CHANNELS 3 Zrotation Xrotation Yrotation
                        JOINT RightHand
                        {
                            OFFSET -21.865299 0.000000 0.000000
                            CHANNELS 3 Zrotation Xrotation Yrotation
                            JOINT RightHandThumb1
                            {
                                OFFSET -1.853710 -2.106480 2.949080
                                CHANNELS 3 Zrotation Xrotation Yrotation
                                JOINT RightHandThumb2
                                {
                                    OFFSET -2.049150 0.000000 1.336400
                                    CHANNELS 3 Zrotation Xrotation Yrotation
                                    JOINT RightHandThumb3
                                    {
                                        OFFSET -2.672810 0.000000 0.000000
                                        CHANNELS 3 Zrotation Xrotation Yrotation
                                        End Site
                                        {
                                            OFFSET -2.381310 0.000000 0.000000
                                        }
                                    }
                                }
                            }
                            JOINT RightHandIndex1
                            {
                                OFFSET -7.583340 0.000000 2.949080
                                CHANNELS 3 Zrotation Xrotation Yrotation
                                JOINT RightHandIndex2
                                {
                                    OFFSET -4.454680 0.000000 0.000000
                                    CHANNELS 3 Zrotation Xrotation Yrotation
                                    JOINT RightHandIndex3
                                    {
                                        OFFSET -2.227340 0.000000 0.000000
                                        CHANNELS 3 Zrotation Xrotation Yrotation
                                        End Site
                                        {
                                            OFFSET -1.984424 0.000000 0.000000
                                        }
                                    }
                                }
                            }
                            JOINT RightHandMiddle1
                            {
                                OFFSET -7.583340 0.000000 0.977409
                                CHANNELS 3 Zrotation Xrotation Yrotation
                                JOINT RightHandMiddle2
                                {
                                    OFFSET -4.900150 0.000000 0.000000
                                    CHANNELS 3 Zrotation Xrotation Yrotation
                                    JOINT RightHandMiddle3
                                    {
                                        OFFSET -2.672810 0.000000 0.000000
                                        CHANNELS 3 Zrotation Xrotation Yrotation
                                        End Site
                                        {
                                            OFFSET -2.381310 0.000000 0.000000
                                        }
                                    }
                                }
                            }
                            JOINT RightHandRing1
                            {
                                OFFSET -7.162050 0.000000 -0.977409
                                CHANNELS 3 Zrotation Xrotation Yrotation
                                JOINT RightHandRing2
                                {
                                    OFFSET -4.454680 0.000000 0.000000
                                    CHANNELS 3 Zrotation Xrotation Yrotation
                                    JOINT RightHandRing3
                                    {
                                        OFFSET -2.227340 0.000000 0.000000
                                        CHANNELS 3 Zrotation Xrotation Yrotation
                                        End Site
                                        {
                                            OFFSET -1.984424 0.000000 0.000000
                                        }
                                    }
                                }
                            }
                            JOINT RightHandPinky1
                            {
                                OFFSET -6.740750 0.000000 -2.949080
                                CHANNELS 3 Zrotation Xrotation Yrotation
                                JOINT RightHandPinky2
                                {
                                    OFFSET -3.563750 0.000000 0.000000
                                    CHANNELS 3 Zrotation Xrotation Yrotation
                                    JOINT RightHandPinky3
                                    {
                                        OFFSET -1.781870 0.000000 0.000000
                                        CHANNELS 3 Zrotation Xrotation Yrotation
                                        End Site
                                        {
                                            OFFSET -1.587538 0.000000 0.000000
                                        }
                                    }
                                }
                            }
                        }
                    }
                }
            }
        }
    }
    JOINT LeftUpLeg
    {
        OFFSET 8.909360 0.000000 0.000000
        CHANNELS 3 Zrotation Xrotation Yrotation
        JOINT LeftLeg
        {
            OFFSET -0.000000 -38.765602 0.000000
            CHANNELS 3 Zrotation Xrotation Yrotation
            JOINT LeftFoot
            {
                OFFSET -0.000000 -35.245003 0.000000
                CHANNELS 3 Zrotation Xrotation Yrotation
                JOINT LeftToeBase
                {
                    OFFSET -0.000000 -5.791090 13.364000
                    CHANNELS 3 Zrotation Xrotation Yrotation
                    End Site
                    {
                        OFFSET -0.000000 0.000000 3.563756
                    }
                }
            }
        }
    }
    JOINT RightUpLeg
    {
        OFFSET -8.909360 0.000000 0.000000
        CHANNELS 3 Zrotation Xrotation Yrotation
        JOINT RightLeg
        {
            OFFSET -0.000000 -38.765602 0.000000
            CHANNELS 3 Zrotation Xrotation Yrotation
            JOINT RightFoot
            {
                OFFSET -0.000000 -35.245003 0.000000
                CHANNELS 3 Zrotation Xrotation Yrotation
                JOINT RightToeBase
                {
                    OFFSET -0.000000 -5.791090 13.364000
                    CHANNELS 3 Zrotation Xrotation Yrotation
                    End Site
                    {
                        OFFSET -0.000000 0.000000 3.563756
                    }
                }
            }
        }
    }
}
MOTION
Frames:    4
Frame Time:    0.033333
-1.976620    80.157944    123.874115    2.183846    5.361486    -13.275096    -4.737680    2.365990    -10.772125    -9.845155    -2.338983    -3.825348    9.552754    14.053240    7.424901    10.081511    -7.381777    9.492103    -1.358126    13.294346    3.037540    -84.996132    17.551664    7.269271    13.333268    -6.332154    5.070039    -21.558735    -45.548508    -8.864084    1.458601    3.004026    5.406103    -0.000000    0.000000    5.085290    -0.000000    0.000000    10.170581    -17.583536    5.032384    -15.472124    -36.535191    0.000000    0.000000    -18.267595    0.000000    0.000000    -29.111135    2.550857    -7.860553    -58.426888    0.000000    0.000000    -29.213446    0.000000    0.000000    -40.206196    -1.373486    -0.899614    -80.318565    0.000000    0.000000    -40.159283    0.000000    0.000000    -51.120930    -6.711627    5.383288    -102.873634    0.000000    0.000000    -51.436817    0.000000    0.000000    -5.809569    13.716309    -21.762878    102.251495    43.879070    -11.525932    -25.255903    -2.461364    15.990179    33.424744    -20.486610    12.349286    2.257782    0.568479    0.567645    0.000000    0.000000    -1.226465    0.000000    0.000000    -2.452929    13.689754    1.119900    4.587468    27.469227    0.000000    -0.000000    13.734613    0.000000    -0.000000    23.232973    -0.239837    1.086970    46.466423    0.000000    -0.000000    23.233213    0.000000    -0.000000    32.681690    -2.158534    -2.141840    65.463623    0.000000    -0.000000    32.731808    0.000000    -0.000000    42.310677    -4.659090    -5.099213    85.036484    0.000000    -0.000000    42.518250    0.000000    -0.000000    8.571494    3.583204    14.854007    4.528209    2.195158    26.317823    -21.245710    0.338221    -13.923501    -0.010251    -2.642823    -0.311102    -22.108620    -13.088893    8.056049    -1.034357    6.836673    -24.750456    23.220186    17.026596    11.144053    -0.829121    -4.579762    0.863654    
-2.465308    80.046494    124.512390    1.766773    5.715291    -14.277476    -3.535951    1.659998    -10.093297    -9.504792    -3.390559    -3.664277    7.906228    15.631498    7.759045    10.180316    -7.712148    9.545028    -1.651632    12.957321    5.615981    -84.908585    16.245800    6.596364    12.633046    -7.424234    5.681112    -22.453091    -45.814083    -8.916135    1.791116    2.573487    5.260112    -0.000000    0.000000    4.901131    -0.000000    0.000000    9.802260    -17.310873    4.781721    -14.973800    -35.879292    0.000000    0.000000    -17.939646    0.000000    0.000000    -29.059401    2.259166    -7.423337    -58.277863    0.000000    0.000000    -29.138939    0.000000    0.000000    -40.375912    -1.720446    -0.543588    -80.676445    0.000000    0.000000    -40.338215    0.000000    0.000000    -51.526325    -7.123070    5.627865    -103.753777    0.000000    0.000000    -51.876888    0.000000    0.000000    -5.772017    13.705850    -22.253754    101.378235    42.472034    -11.843058    -21.915838    -9.742561    13.128026    36.327885    -24.048109    14.204750    1.668423    0.423416    0.412351    0.000000    0.000000    -1.178470    0.000000    0.000000    -2.356939    14.672354    0.960229    3.662215    29.406109    0.000000    -0.000000    14.703052    0.000000    -0.000000    23.743187    -0.446011    0.423242    47.493702    0.000000    -0.000000    23.746857    0.000000    -0.000000    32.726944    -2.343109    -2.555819    65.581306    0.000000    -0.000000    32.790657    0.000000    -0.000000    41.888935    -4.756991    -5.282701    84.217026    0.000000    -0.000000    42.108513    0.000000    -0.000000    8.766947    5.085565    15.458217    4.894691    0.219984    27.760775    -21.338541    0.931592    -14.912388    0.002849    -2.892576    -0.379353    -21.102858    -12.534048    6.274107    -1.552876    5.475152    -22.860806    23.081984    16.751997    11.779735    -0.840612    -4.289959    0.912068    
-2.768978    79.964752    125.040520    1.411707    5.918990    -15.583097    -2.160532    1.397798    -9.011629    -9.730691    -4.590084    -3.404626    7.190337    17.272911    7.835012    9.908489    -8.289186    9.599249    -2.114257    12.200281    8.296357    -84.333260    14.603409    6.019666    12.027771    -9.208639    6.434163    -23.269682    -46.582489    -9.103751    2.135848    2.266393    5.283959    -0.000000    0.000000    4.847804    -0.000000    0.000000    9.695607    -16.666763    3.960154    -12.989985    -34.235588    0.000000    0.000000    -17.117794    0.000000    0.000000    -28.993956    1.179303    -5.681762    -58.024994    0.000000    0.000000    -29.012503    0.000000    0.000000    -40.884457    -3.072274    0.874211    -81.814407    0.000000    0.000000    -40.907211    0.000000    0.000000    -52.655941    -8.744090    6.616406    -106.324707    0.000000    0.000000    -53.162354    0.000000    0.000000    -5.745173    13.767758    -22.636055    101.072662    40.565132    -11.783714    -19.296705    -16.850824    10.228662    36.106689    -28.606047    14.286914    0.969742    0.453362    -0.094774    0.000000    0.000000    -1.503333    0.000000    0.000000    -3.006666    14.729177    0.564654    2.146838    29.479513    0.000000    -0.000000    14.739757    0.000000    -0.000000    23.778290    -0.800725    -0.582648    47.581577    0.000000    -0.000000    23.790794    0.000000    -0.000000    32.759827    -2.576976    -3.065539    65.683640    0.000000    -0.000000    32.841816    0.000000    -0.000000    41.945156    -4.787660    -5.306064    84.334259    0.000000    -0.000000    42.167130    0.000000    -0.000000    8.991721    6.037900    15.595401    5.022921    -0.202747    28.207411    -21.526407    0.268363    -14.994259    0.010700    -3.128254    -0.432561    -20.294868    -12.554350    5.029579    -1.764636    4.933161    -21.077791    22.811960    16.551947    12.401966    -0.836999    -4.083940    0.927070    
-2.898187    79.909721    125.469246    1.347969    5.865646    -16.590191    -0.995801    1.427827    -7.830172    -10.520213    -5.521046    -3.124089    7.546824    18.687609    7.493792    9.291267    -8.880603    9.524251    -2.636936    11.069035    10.094836    -83.246414    13.020008    5.700453    11.617431    -10.825863    7.073809    -22.667742    -47.576984    -8.743578    2.427305    2.190550    5.528670    -0.000000    0.000000    4.993046    -0.000000    0.000000    9.986091    -16.392565    3.349200    -11.232432    -33.444012    0.000000    0.000000    -16.722008    0.000000    0.000000    -29.522884    0.002642    -3.910675    -58.707489    0.000000    0.000000    -29.516321    0.000000    0.000000    -42.165386    -4.892695    2.483188    -83.970963    0.000000    0.000000    -42.310631    0.000000    0.000000    -54.717384    -11.249593    7.859316    -110.000000    0.000000    0.000000    -55.492645    0.000000    0.000000    -5.677388    13.934462    -22.923910    101.751938    39.192440    -11.783305    -17.708796    -22.686855    7.797092    32.281467    -35.112286    13.479888    0.059841    0.689824    -1.053736    0.000000    0.000000    -2.204430    0.000000    0.000000    -4.408860    13.164416    0.059088    0.252625    26.329092    0.000000    -0.000000    13.164546    0.000000    -0.000000    22.837696    -1.191694    -1.773906    45.733223    0.000000    -0.000000    22.866617    0.000000    -0.000000    32.469231    -2.764547    -3.563002    65.137352    0.000000    -0.000000    32.568680    0.000000    -0.000000    42.356194    -4.673738    -5.107011    85.129486    0.000000    -0.000000    42.564743    0.000000    -0.000000    9.067049    6.330215    15.220037    4.925838    0.744163    27.785181    -21.697758    -1.079144    -14.499755    0.004946    -3.197780    -0.427100    -19.966539    -12.557239    4.938956    -1.853005    4.828989    -20.138014    22.706060    16.119177    12.523434    -0.817986    -3.916509    0.913027    
